{
 "cells": [
  {
   "cell_type": "markdown",
   "id": "bc71c82b",
   "metadata": {},
   "source": [
    "Treasure Island by Robert Louis Stevenson\n",
    "\n",
    "Source https://www.gutenberg.org/ebooks/120\n",
    "\n",
    "Ref https://en.wikipedia.org/wiki/Treasure_Island"
   ]
  },
  {
   "cell_type": "code",
   "execution_count": null,
   "id": "8e0fc48f",
   "metadata": {},
   "outputs": [],
   "source": [
    "# Concept art\n",
    "\n",
    "Summary: \n",
    "\n",
    "Genre: Adventure\n",
    "\n",
    "Background: \n",
    "mid-18th century\n",
    "\n",
    "Main charactor:\n",
    "    \n",
    "Iconic:\n",
    "deserted tropical islands, \n",
    "treasure maps marked with an \"X\", \n",
    "and one-legged seamen with parrots perched on their shoulders\n",
    "\n",
    "Prompt:\n",
    "mid-18th century, sunny day, pirate ship docking on deserted tropical islands,\n",
    "one-legged seamen with parrots perched on shoulder,\n",
    "treasure maps marked with an \"X\", \n",
    "--ar 3:2 --no text\n",
    "\n",
    "mid-18th century, sunny day, pirate ship docking on deserted tropical islands,\n",
    "peg leg pirates captain standing next to the ship, parrot on his shoulder,\n",
    "treasure maps marked with an \"X\" in his hand\n",
    "--ar 3:2 --no text   \n",
    "    \n",
    "mid-18th century, sunny day, pirate ship docking on deserted tropical islands,\n",
    "treasure maps marked with an \"X\" in his hand\n",
    "--ar 3:2 --no text   "
   ]
  },
  {
   "cell_type": "code",
   "execution_count": null,
   "id": "0229b767",
   "metadata": {},
   "outputs": [],
   "source": [
    "# Youtube description\n",
    "\n",
    "Prompt: Write title, description, and keywords of youtube video of full audiobook of the classic book \"Treasure Island by Robert Louis Stevenson\"\n",
    "    \n",
    "Title: Treasure Island by Robert Louis Stevenson: Full Audiobook Edition\n",
    "\n",
    "Description: Set sail on a thrilling adventure with this full audiobook edition of Robert Louis Stevenson's classic novel \"Treasure Island.\" Join young Jim Hawkins as he embarks on a quest for a legendary treasure, facing danger and excitement at every turn. Let the vivid narration and immersive soundscape transport you to a world of pirates, treasure, and swashbuckling excitement.\n",
    "\n",
    "Keywords: Treasure Island, Robert Louis Stevenson, full audiobook, classic literature, adventure, pirates, treasure, Jim Hawkins, danger, excitement, vivid narration, immersive soundscape, classic novel, swashbuckling.\"\n",
    "\n",
    "0:00:00 Chapter 1\n",
    "0:14:04 Chaptor 2\n",
    "0:27:42 Chaptor 3\n",
    "0:40:46 Chaptor 4\n",
    "0:53:34 Chaptor 5\n",
    "1:05:14 Chaptor 6\n",
    "1:17:58 Chaptor 7\n",
    "1:29:32 Chaptor 8\n",
    "1:40:58 Chaptor 9\n",
    "1:51:56 Chaptor 10\n",
    "2:03:46 Chaptor 11\n",
    "2:17:13 Chaptor 12\n",
    "2:28:40 Chaptor 13\n",
    "2:39:33 Chaptor 14\n",
    "2:51:25 Chaptor 15\n",
    "3:05:57 Chaptor 16\n",
    "3:16:02 Chaptor 17\n",
    "3:25:10 Chaptor 18\n",
    "3:34:44 Chaptor 19\n",
    "3:47:15 Chaptor 20\n",
    "3:59:21 Chaptor 21\n",
    "4:12:33 Chaptor 22\n",
    "4:25:01 Chaptor 23\n",
    "4:34:54 Chaptor 24\n",
    "4:47:05 Chaptor 25\n",
    "4:57:45 Chaptor 26\n",
    "5:15:53 Chaptor 27\n",
    "5:29:13 Chaptor 28\n",
    "5:46:45 Chaptor 29\n",
    "6:00:33 Chaptor 30\n",
    "6:15:20 Chaptor 31\n",
    "6:29:47 Chaptor 32\n",
    "6:42:40 Chaptor 33\n",
    "6:55:23 Chaptor 34\n",
    "        \n",
    "Credits\n",
    "Text: Project Gutenberg https://www.gutenberg.org/ebooks/120\n",
    "Voice: Google Cloud Text-to-Speech\n",
    "Produced by: The Classic Narrator 2023"
   ]
  },
  {
   "cell_type": "code",
   "execution_count": 4,
   "id": "77a554fb",
   "metadata": {},
   "outputs": [
    {
     "name": "stdout",
     "output_type": "stream",
     "text": [
      "Generate audio => output.mp3\n"
     ]
    },
    {
     "data": {
      "text/plain": [
       "1"
      ]
     },
     "execution_count": 4,
     "metadata": {},
     "output_type": "execute_result"
    }
   ],
   "source": [
    "# Voice test\n",
    "\n",
    "from TextToAudiobook import *\n",
    "test_tta = TextToAudiobook(\"test\")\n",
    "\n",
    "\n",
    "\n",
    "text = '''\n",
    "<speak>\n",
    "Over on the back the same hand had written this further information:\n",
    "\n",
    "Tall tree, Spy-glass shoulder, bearing a point to\n",
    "the N. of N.N.E.\n",
    "\n",
    "Skeleton Island E.S.E. and by E.\n",
    "\n",
    "Ten feet.\n",
    "\n",
    "The bar silver is in the north cache; you can find\n",
    "it by the trend of the east hummock, ten fathoms\n",
    "south of the black crag with the face on it.\n",
    "\n",
    "The arms are easy found, in the sand-hill, N.\n",
    "point of north inlet cape, bearing E. and a\n",
    "quarter N.\n",
    "J.F.\n",
    "\n",
    "That was all; but brief as it was, and to me incomprehensible, it filled\n",
    "the squire and Dr. Livesey with delight.\n",
    "</speak>\n",
    "'''\n",
    "\n",
    "# Test voices\n",
    "# voice = texttospeech.VoiceSelectionParams(\n",
    "#     language_code=\"en-GB\",\n",
    "#     name=\"en-GB-Neural2-A\",\n",
    "# )\n",
    "\n",
    "voice = texttospeech.VoiceSelectionParams(\n",
    "    language_code=\"en-GB\",\n",
    "    name=\"en-GB-Standard-C\",\n",
    ")\n",
    "\n",
    "\n",
    "audio_config = texttospeech.AudioConfig(\n",
    "    audio_encoding=texttospeech.AudioEncoding.MP3,\n",
    "    speaking_rate=0.9\n",
    ")\n",
    "\n",
    "test_tta.synthesize_ssml(text, \"output.mp3\", voice, audio_config)\n",
    "# test_tta.synthesize_text(text, \"output.mp3\", voice, audio_config)\n",
    "\n"
   ]
  },
  {
   "cell_type": "code",
   "execution_count": 1,
   "id": "0326b8d9",
   "metadata": {},
   "outputs": [],
   "source": [
    "%load_ext autoreload\n",
    "%reload_ext autoreload\n",
    "%autoreload 2"
   ]
  },
  {
   "cell_type": "code",
   "execution_count": 5,
   "id": "c3793734",
   "metadata": {},
   "outputs": [],
   "source": [
    "# Text to script\n",
    "\n",
    "from TextToAudiobook import *\n",
    "\n",
    "folder_name = \"TreasureIsland\"\n",
    "file_name = \"120-1.txt\"\n",
    "\n",
    "test_tta = TextToAudiobook(folder_name, char_limit_per_call=2000)"
   ]
  },
  {
   "cell_type": "code",
   "execution_count": 8,
   "id": "4b63cb09",
   "metadata": {},
   "outputs": [
    {
     "name": "stdout",
     "output_type": "stream",
     "text": [
      "Clean: 7417 lines\n",
      "./TreasureIsland/project_file/clean/120-1.txt\n",
      "Tag: 7417 lines\n",
      "./TreasureIsland/project_file/tag/120-1.txt\n",
      "Break: 7417 lines\n",
      "./TreasureIsland/project_file/break/120-1.txt\n",
      "Split: 225 files\n",
      "./TreasureIsland/project_file/split/120-1_txt/\n"
     ]
    }
   ],
   "source": [
    "#1 Clean raw file and copy to clean folder\n",
    "print(test_tta.clean_txt_raw(file_name))\n",
    "\n",
    "#2 Tag speech in clean file and copy to tag folder\n",
    "print(test_tta.tag_txt_clean(file_name))\n",
    "\n",
    "#3 Mark break point by chapter and characters limit\n",
    "print(test_tta.break_txt_tag(file_name))\n",
    "\n",
    "#4 Split into files by chapter and characters break\n",
    "print(test_tta.split_txt_break(file_name))"
   ]
  },
  {
   "cell_type": "code",
   "execution_count": 14,
   "id": "750cd4eb",
   "metadata": {},
   "outputs": [
    {
     "name": "stdout",
     "output_type": "stream",
     "text": [
      "Generate audio => ./TreasureIsland/project_file/audio/120-1_txt/0020_004.mp3\n",
      "Generate audio => ./TreasureIsland/project_file/audio/120-1_txt/0020_005.mp3\n",
      "Generate audio => ./TreasureIsland/project_file/audio/120-1_txt/0020_006.mp3\n",
      "Generate audio => ./TreasureIsland/project_file/audio/120-1_txt/0020_007.mp3\n",
      "Generate audio => ./TreasureIsland/project_file/audio/120-1_txt/0021_001.mp3\n",
      "Generate audio => ./TreasureIsland/project_file/audio/120-1_txt/0021_002.mp3\n",
      "Generate audio => ./TreasureIsland/project_file/audio/120-1_txt/0021_003.mp3\n",
      "Generate audio => ./TreasureIsland/project_file/audio/120-1_txt/0021_004.mp3\n",
      "Generate audio => ./TreasureIsland/project_file/audio/120-1_txt/0021_005.mp3\n",
      "Generate audio => ./TreasureIsland/project_file/audio/120-1_txt/0021_006.mp3\n",
      "Generate audio => ./TreasureIsland/project_file/audio/120-1_txt/0021_007.mp3\n",
      "Generate audio => ./TreasureIsland/project_file/audio/120-1_txt/0022_001.mp3\n",
      "Generate audio => ./TreasureIsland/project_file/audio/120-1_txt/0022_002.mp3\n",
      "Generate audio => ./TreasureIsland/project_file/audio/120-1_txt/0022_003.mp3\n",
      "Generate audio => ./TreasureIsland/project_file/audio/120-1_txt/0022_004.mp3\n",
      "Generate audio => ./TreasureIsland/project_file/audio/120-1_txt/0022_005.mp3\n",
      "Generate audio => ./TreasureIsland/project_file/audio/120-1_txt/0022_006.mp3\n",
      "Generate audio => ./TreasureIsland/project_file/audio/120-1_txt/0023_001.mp3\n",
      "Generate audio => ./TreasureIsland/project_file/audio/120-1_txt/0023_002.mp3\n",
      "Generate audio => ./TreasureIsland/project_file/audio/120-1_txt/0023_003.mp3\n",
      "Generate audio => ./TreasureIsland/project_file/audio/120-1_txt/0023_004.mp3\n",
      "Generate audio => ./TreasureIsland/project_file/audio/120-1_txt/0023_005.mp3\n",
      "Generate audio => ./TreasureIsland/project_file/audio/120-1_txt/0024_001.mp3\n",
      "Generate audio => ./TreasureIsland/project_file/audio/120-1_txt/0024_002.mp3\n",
      "Generate audio => ./TreasureIsland/project_file/audio/120-1_txt/0024_003.mp3\n",
      "Generate audio => ./TreasureIsland/project_file/audio/120-1_txt/0024_004.mp3\n",
      "Generate audio => ./TreasureIsland/project_file/audio/120-1_txt/0024_005.mp3\n",
      "Generate audio => ./TreasureIsland/project_file/audio/120-1_txt/0024_006.mp3\n",
      "Generate audio => ./TreasureIsland/project_file/audio/120-1_txt/0025_001.mp3\n",
      "Generate audio => ./TreasureIsland/project_file/audio/120-1_txt/0025_002.mp3\n",
      "Generate audio => ./TreasureIsland/project_file/audio/120-1_txt/0025_003.mp3\n",
      "Generate audio => ./TreasureIsland/project_file/audio/120-1_txt/0025_004.mp3\n",
      "Generate audio => ./TreasureIsland/project_file/audio/120-1_txt/0025_005.mp3\n",
      "Generate audio => ./TreasureIsland/project_file/audio/120-1_txt/0025_006.mp3\n",
      "Generate audio => ./TreasureIsland/project_file/audio/120-1_txt/0026_001.mp3\n",
      "Generate audio => ./TreasureIsland/project_file/audio/120-1_txt/0026_002.mp3\n",
      "Generate audio => ./TreasureIsland/project_file/audio/120-1_txt/0026_003.mp3\n",
      "Generate audio => ./TreasureIsland/project_file/audio/120-1_txt/0026_004.mp3\n",
      "Generate audio => ./TreasureIsland/project_file/audio/120-1_txt/0026_005.mp3\n",
      "Generate audio => ./TreasureIsland/project_file/audio/120-1_txt/0026_006.mp3\n",
      "Generate audio => ./TreasureIsland/project_file/audio/120-1_txt/0026_007.mp3\n",
      "Generate audio => ./TreasureIsland/project_file/audio/120-1_txt/0026_008.mp3\n",
      "Generate audio => ./TreasureIsland/project_file/audio/120-1_txt/0026_009.mp3\n",
      "Generate audio => ./TreasureIsland/project_file/audio/120-1_txt/0027_001.mp3\n",
      "Generate audio => ./TreasureIsland/project_file/audio/120-1_txt/0027_002.mp3\n",
      "Generate audio => ./TreasureIsland/project_file/audio/120-1_txt/0027_003.mp3\n",
      "Generate audio => ./TreasureIsland/project_file/audio/120-1_txt/0027_004.mp3\n",
      "Generate audio => ./TreasureIsland/project_file/audio/120-1_txt/0027_005.mp3\n",
      "Generate audio => ./TreasureIsland/project_file/audio/120-1_txt/0027_006.mp3\n",
      "Generate audio => ./TreasureIsland/project_file/audio/120-1_txt/0028_001.mp3\n",
      "Generate audio => ./TreasureIsland/project_file/audio/120-1_txt/0028_002.mp3\n",
      "Generate audio => ./TreasureIsland/project_file/audio/120-1_txt/0028_003.mp3\n",
      "Generate audio => ./TreasureIsland/project_file/audio/120-1_txt/0028_004.mp3\n",
      "Generate audio => ./TreasureIsland/project_file/audio/120-1_txt/0028_005.mp3\n",
      "Generate audio => ./TreasureIsland/project_file/audio/120-1_txt/0028_006.mp3\n",
      "Generate audio => ./TreasureIsland/project_file/audio/120-1_txt/0028_007.mp3\n",
      "Generate audio => ./TreasureIsland/project_file/audio/120-1_txt/0028_008.mp3\n",
      "Generate audio => ./TreasureIsland/project_file/audio/120-1_txt/0028_009.mp3\n",
      "Generate audio => ./TreasureIsland/project_file/audio/120-1_txt/0029_001.mp3\n",
      "Generate audio => ./TreasureIsland/project_file/audio/120-1_txt/0029_002.mp3\n",
      "Generate audio => ./TreasureIsland/project_file/audio/120-1_txt/0029_003.mp3\n",
      "Generate audio => ./TreasureIsland/project_file/audio/120-1_txt/0029_004.mp3\n",
      "Generate audio => ./TreasureIsland/project_file/audio/120-1_txt/0029_005.mp3\n",
      "Generate audio => ./TreasureIsland/project_file/audio/120-1_txt/0029_006.mp3\n",
      "Generate audio => ./TreasureIsland/project_file/audio/120-1_txt/0029_007.mp3\n",
      "Generate audio => ./TreasureIsland/project_file/audio/120-1_txt/0030_001.mp3\n",
      "Generate audio => ./TreasureIsland/project_file/audio/120-1_txt/0030_002.mp3\n",
      "Generate audio => ./TreasureIsland/project_file/audio/120-1_txt/0030_003.mp3\n",
      "Generate audio => ./TreasureIsland/project_file/audio/120-1_txt/0030_004.mp3\n",
      "Generate audio => ./TreasureIsland/project_file/audio/120-1_txt/0030_005.mp3\n",
      "Generate audio => ./TreasureIsland/project_file/audio/120-1_txt/0030_006.mp3\n",
      "Generate audio => ./TreasureIsland/project_file/audio/120-1_txt/0030_007.mp3\n",
      "Generate audio => ./TreasureIsland/project_file/audio/120-1_txt/0030_008.mp3\n",
      "Generate audio => ./TreasureIsland/project_file/audio/120-1_txt/0031_001.mp3\n",
      "Generate audio => ./TreasureIsland/project_file/audio/120-1_txt/0031_002.mp3\n",
      "Generate audio => ./TreasureIsland/project_file/audio/120-1_txt/0031_003.mp3\n",
      "Generate audio => ./TreasureIsland/project_file/audio/120-1_txt/0031_004.mp3\n",
      "Generate audio => ./TreasureIsland/project_file/audio/120-1_txt/0031_005.mp3\n",
      "Generate audio => ./TreasureIsland/project_file/audio/120-1_txt/0031_006.mp3\n",
      "Generate audio => ./TreasureIsland/project_file/audio/120-1_txt/0031_007.mp3\n",
      "Generate audio => ./TreasureIsland/project_file/audio/120-1_txt/0032_001.mp3\n",
      "Generate audio => ./TreasureIsland/project_file/audio/120-1_txt/0032_002.mp3\n",
      "Generate audio => ./TreasureIsland/project_file/audio/120-1_txt/0032_003.mp3\n",
      "Generate audio => ./TreasureIsland/project_file/audio/120-1_txt/0032_004.mp3\n",
      "Generate audio => ./TreasureIsland/project_file/audio/120-1_txt/0032_005.mp3\n",
      "Generate audio => ./TreasureIsland/project_file/audio/120-1_txt/0032_006.mp3\n",
      "Generate audio => ./TreasureIsland/project_file/audio/120-1_txt/0032_007.mp3\n",
      "Generate audio => ./TreasureIsland/project_file/audio/120-1_txt/0033_001.mp3\n",
      "Generate audio => ./TreasureIsland/project_file/audio/120-1_txt/0033_002.mp3\n",
      "Generate audio => ./TreasureIsland/project_file/audio/120-1_txt/0033_003.mp3\n",
      "Generate audio => ./TreasureIsland/project_file/audio/120-1_txt/0033_004.mp3\n",
      "Generate audio => ./TreasureIsland/project_file/audio/120-1_txt/0033_005.mp3\n",
      "Generate audio => ./TreasureIsland/project_file/audio/120-1_txt/0033_006.mp3\n",
      "Generate audio => ./TreasureIsland/project_file/audio/120-1_txt/0033_007.mp3\n",
      "Generate audio => ./TreasureIsland/project_file/audio/120-1_txt/0034_001.mp3\n",
      "Generate audio => ./TreasureIsland/project_file/audio/120-1_txt/0034_002.mp3\n",
      "Generate audio => ./TreasureIsland/project_file/audio/120-1_txt/0034_003.mp3\n",
      "Generate audio => ./TreasureIsland/project_file/audio/120-1_txt/0034_004.mp3\n",
      "Generate audio => ./TreasureIsland/project_file/audio/120-1_txt/0034_005.mp3\n",
      "Generate audio => ./TreasureIsland/project_file/audio/120-1_txt/0034_006.mp3\n",
      "Synthesize: 100 files\n",
      "./TreasureIsland/project_file/audio/120-1_txt/\n"
     ]
    }
   ],
   "source": [
    "# Split into files by chapter and characters break\n",
    "voice = texttospeech.VoiceSelectionParams(\n",
    "    language_code=\"en-GB\",\n",
    "    name=\"en-GB-Standard-D\",\n",
    ")\n",
    "\n",
    "audio_config = texttospeech.AudioConfig(\n",
    "    audio_encoding=texttospeech.AudioEncoding.MP3,\n",
    "    speaking_rate=0.9\n",
    ")\n",
    "print(test_tta.synthesize_txt_split(file_name, file_limit=500, voice=voice, audio_config=audio_config))\n"
   ]
  },
  {
   "cell_type": "code",
   "execution_count": 15,
   "id": "ab7994d6",
   "metadata": {},
   "outputs": [
    {
     "name": "stdout",
     "output_type": "stream",
     "text": [
      "Generate track list: ./TreasureIsland/project_file/audio/120-1_txt/track_list.txt [total: 225 files]\n"
     ]
    },
    {
     "name": "stderr",
     "output_type": "stream",
     "text": [
      "ffmpeg version 5.1.2 Copyright (c) 2000-2022 the FFmpeg developers\n",
      "  built with Apple clang version 14.0.0 (clang-1400.0.29.102)\n",
      "  configuration: --prefix=/usr/local/Cellar/ffmpeg/5.1.2 --enable-shared --enable-pthreads --enable-version3 --cc=clang --host-cflags= --host-ldflags= --enable-ffplay --enable-gnutls --enable-gpl --enable-libaom --enable-libbluray --enable-libdav1d --enable-libmp3lame --enable-libopus --enable-librav1e --enable-librist --enable-librubberband --enable-libsnappy --enable-libsrt --enable-libtesseract --enable-libtheora --enable-libvidstab --enable-libvmaf --enable-libvorbis --enable-libvpx --enable-libwebp --enable-libx264 --enable-libx265 --enable-libxml2 --enable-libxvid --enable-lzma --enable-libfontconfig --enable-libfreetype --enable-frei0r --enable-libass --enable-libopencore-amrnb --enable-libopencore-amrwb --enable-libopenjpeg --enable-libspeex --enable-libsoxr --enable-libzmq --enable-libzimg --disable-libjack --disable-indev=jack --enable-videotoolbox\n",
      "  libavutil      57. 28.100 / 57. 28.100\n",
      "  libavcodec     59. 37.100 / 59. 37.100\n",
      "  libavformat    59. 27.100 / 59. 27.100\n",
      "  libavdevice    59.  7.100 / 59.  7.100\n",
      "  libavfilter     8. 44.100 /  8. 44.100\n",
      "  libswscale      6.  7.100 /  6.  7.100\n",
      "  libswresample   4.  7.100 /  4.  7.100\n",
      "  libpostproc    56.  6.100 / 56.  6.100\n",
      "[mp3 @ 0x7f9ef800ba00] Estimating duration from bitrate, this may be inaccurate\n",
      "Input #0, concat, from './TreasureIsland/project_file/audio/120-1_txt/track_list.txt':\n",
      "  Duration: N/A, start: 0.000000, bitrate: 32 kb/s\n",
      "  Stream #0:0: Audio: mp3, 24000 Hz, mono, fltp, 32 kb/s\n",
      "Output #0, mp3, to './TreasureIsland/project_file/audio/120-1_txt.mp3':\n",
      "  Metadata:\n",
      "    TSSE            : Lavf59.27.100\n",
      "  Stream #0:0: Audio: mp3, 24000 Hz, mono, fltp, 32 kb/s\n",
      "Stream mapping:\n",
      "  Stream #0:0 -> #0:0 (copy)\n",
      "Press [q] to stop, [?] for help\n",
      "[mp3 @ 0x7f9ef800d300] Estimating duration from bitrate, this may be inaccurate\n",
      "[mp3 @ 0x7f9ef82052c0] Estimating duration from bitrate, this may be inaccurate\n",
      "[mp3 @ 0x7f9ef8504180] Estimating duration from bitrate, this may be inaccurate\n",
      "[mp3 @ 0x7f9ef8204dc0] Estimating duration from bitrate, this may be inaccurate\n",
      "[mp3 @ 0x7f9ef8205dc0] Estimating duration from bitrate, this may be inaccurate\n",
      "[mp3 @ 0x7f9ef8204e40] Estimating duration from bitrate, this may be inaccurate\n",
      "[mp3 @ 0x7f9ef7705a40] Estimating duration from bitrate, this may be inaccurate\n",
      "[mp3 @ 0x7f9ef8204c00] Estimating duration from bitrate, this may be inaccurate\n",
      "[mp3 @ 0x7f9ef7708d40] Estimating duration from bitrate, this may be inaccurate\n",
      "[mp3 @ 0x7f9ef8604080] Estimating duration from bitrate, this may be inaccurate\n",
      "[mp3 @ 0x7f9ef800b880] Estimating duration from bitrate, this may be inaccurate\n",
      "[mp3 @ 0x7f9ef7708d40] Estimating duration from bitrate, this may be inaccurate\n",
      "[mp3 @ 0x7f9ef8204c00] Estimating duration from bitrate, this may be inaccurate\n",
      "[mp3 @ 0x7f9ef8204f40] Estimating duration from bitrate, this may be inaccurate\n",
      "[mp3 @ 0x7f9ef8204ec0] Estimating duration from bitrate, this may be inaccurate\n",
      "[mp3 @ 0x7f9ef8204e80] Estimating duration from bitrate, this may be inaccurate\n",
      "[mp3 @ 0x7f9ef7709040] Estimating duration from bitrate, this may be inaccurate\n",
      "[mp3 @ 0x7f9ef800b880] Estimating duration from bitrate, this may be inaccurate\n",
      "    Last message repeated 1 times\n",
      "[mp3 @ 0x7f9ef8204cc0] Estimating duration from bitrate, this may be inaccurate\n",
      "    Last message repeated 1 times\n",
      "[mp3 @ 0x7f9ef8204c80] Estimating duration from bitrate, this may be inaccurate\n",
      "[mp3 @ 0x7f9ef8204c40] Estimating duration from bitrate, this may be inaccurate\n",
      "[mp3 @ 0x7f9ef8204c00] Estimating duration from bitrate, this may be inaccurate\n",
      "[mp3 @ 0x7f9ef800b880] Estimating duration from bitrate, this may be inaccurate\n",
      "[mp3 @ 0x7f9ef86040c0] Estimating duration from bitrate, this may be inaccurate\n",
      "[mp3 @ 0x7f9ef800b880] Estimating duration from bitrate, this may be inaccurate\n",
      "[mp3 @ 0x7f9ef8604240] Estimating duration from bitrate, this may be inaccurate\n",
      "[mp3 @ 0x7f9ef8204cc0] Estimating duration from bitrate, this may be inaccurate\n",
      "[mp3 @ 0x7f9ef8204c00] Estimating duration from bitrate, this may be inaccurate\n",
      "[mp3 @ 0x7f9ef800b880] Estimating duration from bitrate, this may be inaccurate\n",
      "[mp3 @ 0x7f9ef8204c40] Estimating duration from bitrate, this may be inaccurate\n",
      "[mp3 @ 0x7f9ef86042c0] Estimating duration from bitrate, this may be inaccurate\n",
      "[mp3 @ 0x7f9ef8205380] Estimating duration from bitrate, this may be inaccurate\n",
      "[mp3 @ 0x7f9ef8604080] Estimating duration from bitrate, this may be inaccurate\n",
      "[mp3 @ 0x7f9ef8504080] Estimating duration from bitrate, this may be inaccurate\n",
      "[mp3 @ 0x7f9ef8604200] Estimating duration from bitrate, this may be inaccurate\n",
      "    Last message repeated 1 times\n",
      "[mp3 @ 0x7f9ef8604080] Estimating duration from bitrate, this may be inaccurate\n",
      "[mp3 @ 0x7f9ef7708ec0] Estimating duration from bitrate, this may be inaccurate\n",
      "[mp3 @ 0x7f9ef800b880] Estimating duration from bitrate, this may be inaccurate\n",
      "[mp3 @ 0x7f9ef8204c40] Estimating duration from bitrate, this may be inaccurate\n",
      "[mp3 @ 0x7f9ef800b880] Estimating duration from bitrate, this may be inaccurate\n",
      "    Last message repeated 1 times\n",
      "[mp3 @ 0x7f9ef800b880] Estimating duration from bitrate, this may be inaccurate\n",
      "[mp3 @ 0x7f9ef7708d40] Estimating duration from bitrate, this may be inaccurate\n",
      "[mp3 @ 0x7f9ef8204c40] Estimating duration from bitrate, this may be inaccurate\n",
      "[mp3 @ 0x7f9ef8504080] Estimating duration from bitrate, this may be inaccurate\n",
      "[mp3 @ 0x7f9ef8205e00] Estimating duration from bitrate, this may be inaccurate\n",
      "[mp3 @ 0x7f9ef800b940] Estimating duration from bitrate, this may be inaccurate\n",
      "[mp3 @ 0x7f9ef800b880] Estimating duration from bitrate, this may be inaccurate\n",
      "[mp3 @ 0x7f9ef7708d40] Estimating duration from bitrate, this may be inaccurate\n",
      "[mp3 @ 0x7f9ef8204cc0] Estimating duration from bitrate, this may be inaccurate\n",
      "[mp3 @ 0x7f9ef8204c80] Estimating duration from bitrate, this may be inaccurate\n",
      "[mp3 @ 0x7f9ef8204c40] Estimating duration from bitrate, this may be inaccurate\n",
      "[mp3 @ 0x7f9ef7708d40] Estimating duration from bitrate, this may be inaccurate\n",
      "[mp3 @ 0x7f9ef8604300] Estimating duration from bitrate, this may be inaccurate\n",
      "[mp3 @ 0x7f9ef8604080] Estimating duration from bitrate, this may be inaccurate\n",
      "    Last message repeated 2 times\n",
      "[mp3 @ 0x7f9ef8204c00] Estimating duration from bitrate, this may be inaccurate\n",
      "[mp3 @ 0x7f9ef8604080] Estimating duration from bitrate, this may be inaccurate\n",
      "[mp3 @ 0x7f9ef7708d40] Estimating duration from bitrate, this may be inaccurate\n",
      "[mp3 @ 0x7f9ef8504200] Estimating duration from bitrate, this may be inaccurate\n",
      "[mp3 @ 0x7f9ef800b880] Estimating duration from bitrate, this may be inaccurate\n",
      "[mp3 @ 0x7f9ef8604180] Estimating duration from bitrate, this may be inaccurate\n",
      "[mp3 @ 0x7f9ef7709740] Estimating duration from bitrate, this may be inaccurate\n",
      "[mp3 @ 0x7f9ef77094c0] Estimating duration from bitrate, this may be inaccurate\n",
      "[mp3 @ 0x7f9ef8204c00] Estimating duration from bitrate, this may be inaccurate\n",
      "[mp3 @ 0x7f9ef7709500] Estimating duration from bitrate, this may be inaccurate\n",
      "[mp3 @ 0x7f9ef8204c40] Estimating duration from bitrate, this may be inaccurate\n",
      "[mp3 @ 0x7f9ef8604080] Estimating duration from bitrate, this may be inaccurate\n",
      "[mp3 @ 0x7f9ef800b880] Estimating duration from bitrate, this may be inaccurate\n",
      "[mp3 @ 0x7f9ef8604080] Estimating duration from bitrate, this may be inaccurate\n",
      "[mp3 @ 0x7f9ef8204c40] Estimating duration from bitrate, this may be inaccurate\n",
      "[mp3 @ 0x7f9ef8204c00] Estimating duration from bitrate, this may be inaccurate\n",
      "[mp3 @ 0x7f9ef800b880] Estimating duration from bitrate, this may be inaccurate\n",
      "    Last message repeated 2 times\n",
      "[mp3 @ 0x7f9ef8204c80] Estimating duration from bitrate, this may be inaccurate\n",
      "[mp3 @ 0x7f9ef77094c0] Estimating duration from bitrate, this may be inaccurate\n",
      "[mp3 @ 0x7f9ef8604180] Estimating duration from bitrate, this may be inaccurate\n",
      "[mp3 @ 0x7f9ef86040c0] Estimating duration from bitrate, this may be inaccurate\n",
      "[mp3 @ 0x7f9ef8604080] Estimating duration from bitrate, this may be inaccurate\n",
      "[mp3 @ 0x7f9ef77094c0] Estimating duration from bitrate, this may be inaccurate\n",
      "[mp3 @ 0x7f9ef8204cc0] Estimating duration from bitrate, this may be inaccurate\n",
      "[mp3 @ 0x7f9ef8204c00] Estimating duration from bitrate, this may be inaccurate\n",
      "    Last message repeated 1 times\n",
      "[mp3 @ 0x7f9ef8604180] Estimating duration from bitrate, this may be inaccurate\n",
      "[mp3 @ 0x7f9ef77094c0] Estimating duration from bitrate, this may be inaccurate\n",
      "[mp3 @ 0x7f9ef8204e00] Estimating duration from bitrate, this may be inaccurate\n"
     ]
    },
    {
     "name": "stderr",
     "output_type": "stream",
     "text": [
      "[mp3 @ 0x7f9ef8204d40] Estimating duration from bitrate, this may be inaccurate\n",
      "[mp3 @ 0x7f9ef8205200] Estimating duration from bitrate, this may be inaccurate\n",
      "[mp3 @ 0x7f9ef8604080] Estimating duration from bitrate, this may be inaccurate\n",
      "    Last message repeated 1 times\n",
      "[mp3 @ 0x7f9ef800b880] Estimating duration from bitrate, this may be inaccurate\n",
      "[mp3 @ 0x7f9ef8205380] Estimating duration from bitrate, this may be inaccurate\n",
      "[mp3 @ 0x7f9ef8204dc0] Estimating duration from bitrate, this may be inaccurate\n",
      "[mp3 @ 0x7f9ef83041c0] Estimating duration from bitrate, this may be inaccurate\n",
      "[mp3 @ 0x7f9ef7709700] Estimating duration from bitrate, this may be inaccurate\n",
      "[mp3 @ 0x7f9ef8204c00] Estimating duration from bitrate, this may be inaccurate\n",
      "    Last message repeated 3 times\n",
      "[mp3 @ 0x7f9ef77094c0] Estimating duration from bitrate, this may be inaccurate\n",
      "[mp3 @ 0x7f9ef8604080] Estimating duration from bitrate, this may be inaccurate\n",
      "[mp3 @ 0x7f9ef8204c00] Estimating duration from bitrate, this may be inaccurate\n",
      "[mp3 @ 0x7f9ef800b880] Estimating duration from bitrate, this may be inaccurate\n",
      "[mp3 @ 0x7f9ef8204c00] Estimating duration from bitrate, this may be inaccurate\n",
      "[mp3 @ 0x7f9ef77094c0] Estimating duration from bitrate, this may be inaccurate\n",
      "[mp3 @ 0x7f9ef8204c00] Estimating duration from bitrate, this may be inaccurate\n",
      "[mp3 @ 0x7f9ef77094c0] Estimating duration from bitrate, this may be inaccurate\n",
      "[mp3 @ 0x7f9efb804080] Estimating duration from bitrate, this may be inaccurate\n",
      "[mp3 @ 0x7f9ef800b880] Estimating duration from bitrate, this may be inaccurate\n",
      "[mp3 @ 0x7f9ef8204cc0] Estimating duration from bitrate, this may be inaccurate\n",
      "[mp3 @ 0x7f9ef800bac0] Estimating duration from bitrate, this may be inaccurate\n",
      "[mp3 @ 0x7f9ef8604840] Estimating duration from bitrate, this may be inaccurate\n",
      "[mp3 @ 0x7f9ef8204e00] Estimating duration from bitrate, this may be inaccurate\n",
      "[mp3 @ 0x7f9ef800b880] Estimating duration from bitrate, this may be inaccurate\n",
      "[mp3 @ 0x7f9ef86042c0] Estimating duration from bitrate, this may be inaccurate\n",
      "[mp3 @ 0x7f9ef800b880] Estimating duration from bitrate, this may be inaccurate\n",
      "[mp3 @ 0x7f9ef8204c00] Estimating duration from bitrate, this may be inaccurate\n",
      "    Last message repeated 1 times\n",
      "[mp3 @ 0x7f9ef800b880] Estimating duration from bitrate, this may be inaccurate\n",
      "[mp3 @ 0x7f9ef8204c80] Estimating duration from bitrate, this may be inaccurate\n",
      "[mp3 @ 0x7f9ef8604080] Estimating duration from bitrate, this may be inaccurate\n",
      "[mp3 @ 0x7f9efb804080] Estimating duration from bitrate, this may be inaccurate\n",
      "[mp3 @ 0x7f9ef800b880] Estimating duration from bitrate, this may be inaccurate\n",
      "    Last message repeated 1 times\n",
      "[mp3 @ 0x7f9ef8204c00] Estimating duration from bitrate, this may be inaccurate\n",
      "[mp3 @ 0x7f9efb804200] Estimating duration from bitrate, this may be inaccurate\n",
      "[mp3 @ 0x7f9ef8204d00] Estimating duration from bitrate, this may be inaccurate\n",
      "[mp3 @ 0x7f9ef8604080] Estimating duration from bitrate, this may be inaccurate\n",
      "[mp3 @ 0x7f9ef800b880] Estimating duration from bitrate, this may be inaccurate\n",
      "[mp3 @ 0x7f9ef8204c00] Estimating duration from bitrate, this may be inaccurate\n",
      "    Last message repeated 1 times\n",
      "[mp3 @ 0x7f9ef800b940] Estimating duration from bitrate, this may be inaccurate\n",
      "[mp3 @ 0x7f9ef7709700] Estimating duration from bitrate, this may be inaccurate\n",
      "[mp3 @ 0x7f9ef8504080] Estimating duration from bitrate, this may be inaccurate\n",
      "[mp3 @ 0x7f9ef77094c0] Estimating duration from bitrate, this may be inaccurate\n",
      "[mp3 @ 0x7f9ef8604080] Estimating duration from bitrate, this may be inaccurate\n",
      "[mp3 @ 0x7f9ef8204c00] Estimating duration from bitrate, this may be inaccurate\n",
      "[mp3 @ 0x7f9ef800b880] Estimating duration from bitrate, this may be inaccurate\n",
      "    Last message repeated 1 times\n",
      "[mp3 @ 0x7f9ef77094c0] Estimating duration from bitrate, this may be inaccurate\n",
      "[mp3 @ 0x7f9ef8204c00] Estimating duration from bitrate, this may be inaccurate\n",
      "[mp3 @ 0x7f9ef7709740] Estimating duration from bitrate, this may be inaccurate\n",
      "[mp3 @ 0x7f9ef8604080] Estimating duration from bitrate, this may be inaccurate\n",
      "[mp3 @ 0x7f9ef8204c00] Estimating duration from bitrate, this may be inaccurate\n",
      "[mp3 @ 0x7f9ef800b880] Estimating duration from bitrate, this may be inaccurate\n",
      "[mp3 @ 0x7f9ef8204c00] Estimating duration from bitrate, this may be inaccurate\n",
      "[mp3 @ 0x7f9ef8205180] Estimating duration from bitrate, this may be inaccurate\n",
      "[mp3 @ 0x7f9ef8205140] Estimating duration from bitrate, this may be inaccurate\n",
      "[mp3 @ 0x7f9ef8604080] Estimating duration from bitrate, this may be inaccurate\n",
      "[mp3 @ 0x7f9ef800b880] Estimating duration from bitrate, this may be inaccurate\n",
      "[mp3 @ 0x7f9ef8204c00] Estimating duration from bitrate, this may be inaccurate\n",
      "[mp3 @ 0x7f9ef7709740] Estimating duration from bitrate, this may be inaccurate\n",
      "[mp3 @ 0x7f9ef800b880] Estimating duration from bitrate, this may be inaccurate\n",
      "    Last message repeated 2 times\n",
      "[mp3 @ 0x7f9ef8604080] Estimating duration from bitrate, this may be inaccurate\n",
      "[mp3 @ 0x7f9ef7709500] Estimating duration from bitrate, this may be inaccurate\n",
      "[mp3 @ 0x7f9ef800b880] Estimating duration from bitrate, this may be inaccurate\n",
      "[mp3 @ 0x7f9ef77094c0] Estimating duration from bitrate, this may be inaccurate\n",
      "[mp3 @ 0x7f9ef800b880] Estimating duration from bitrate, this may be inaccurate\n",
      "[mp3 @ 0x7f9ef8204c00] Estimating duration from bitrate, this may be inaccurate\n",
      "[mp3 @ 0x7f9ef77094c0] Estimating duration from bitrate, this may be inaccurate\n",
      "[mp3 @ 0x7f9ef8204c00] Estimating duration from bitrate, this may be inaccurate\n",
      "[mp3 @ 0x7f9ef8604080] Estimating duration from bitrate, this may be inaccurate\n",
      "[mp3 @ 0x7f9ef8204c00] Estimating duration from bitrate, this may be inaccurate\n",
      "[mp3 @ 0x7f9ef77094c0] Estimating duration from bitrate, this may be inaccurate\n",
      "[mp3 @ 0x7f9ef8604080] Estimating duration from bitrate, this may be inaccurate\n",
      "[mp3 @ 0x7f9ef8204dc0] Estimating duration from bitrate, this may be inaccurate\n",
      "[mp3 @ 0x7f9ef8204c00] Estimating duration from bitrate, this may be inaccurate\n",
      "[mp3 @ 0x7f9ef800b880] Estimating duration from bitrate, this may be inaccurate\n",
      "    Last message repeated 2 times\n",
      "[mp3 @ 0x7f9ef77094c0] Estimating duration from bitrate, this may be inaccurate\n",
      "[mp3 @ 0x7f9ef8204dc0] Estimating duration from bitrate, this may be inaccurate\n",
      "[mp3 @ 0x7f9ef8604080] Estimating duration from bitrate, this may be inaccurate\n",
      "[mp3 @ 0x7f9ef8204c00] Estimating duration from bitrate, this may be inaccurate\n",
      "[mp3 @ 0x7f9ef800b880] Estimating duration from bitrate, this may be inaccurate\n",
      "[mp3 @ 0x7f9ef86042c0] Estimating duration from bitrate, this may be inaccurate\n",
      "[mp3 @ 0x7f9ef8204f40] Estimating duration from bitrate, this may be inaccurate\n",
      "[mp3 @ 0x7f9ef800b880] Estimating duration from bitrate, this may be inaccurate\n",
      "[mp3 @ 0x7f9ef8604080] Estimating duration from bitrate, this may be inaccurate\n",
      "[mp3 @ 0x7f9ef86043c0] Estimating duration from bitrate, this may be inaccurate\n",
      "[mp3 @ 0x7f9ef800b880] Estimating duration from bitrate, this may be inaccurate\n",
      "[mp3 @ 0x7f9ef8204c00] Estimating duration from bitrate, this may be inaccurate\n",
      "[mp3 @ 0x7f9ef800b880] Estimating duration from bitrate, this may be inaccurate\n",
      "[mp3 @ 0x7f9ef8604080] Estimating duration from bitrate, this may be inaccurate\n",
      "[mp3 @ 0x7f9ef77094c0] Estimating duration from bitrate, this may be inaccurate\n",
      "[mp3 @ 0x7f9ef8604080] Estimating duration from bitrate, this may be inaccurate\n",
      "[mp3 @ 0x7f9ef800b880] Estimating duration from bitrate, this may be inaccurate\n",
      "[mp3 @ 0x7f9ef8604080] Estimating duration from bitrate, this may be inaccurate\n",
      "[mp3 @ 0x7f9ef800b880] Estimating duration from bitrate, this may be inaccurate\n",
      "[mp3 @ 0x7f9ef77094c0] Estimating duration from bitrate, this may be inaccurate\n",
      "[mp3 @ 0x7f9ef800b880] Estimating duration from bitrate, this may be inaccurate\n",
      "[mp3 @ 0x7f9ef8204c00] Estimating duration from bitrate, this may be inaccurate\n",
      "[mp3 @ 0x7f9ef800b980] Estimating duration from bitrate, this may be inaccurate\n",
      "[mp3 @ 0x7f9ef86042c0] Estimating duration from bitrate, this may be inaccurate\n",
      "[mp3 @ 0x7f9ef77094c0] Estimating duration from bitrate, this may be inaccurate\n",
      "[mp3 @ 0x7f9ef77094c0] Estimating duration from bitrate, this may be inaccurate\n",
      "[mp3 @ 0x7f9ef800b880] Estimating duration from bitrate, this may be inaccurate\n",
      "[mp3 @ 0x7f9ef7709700] Estimating duration from bitrate, this may be inaccurate\n",
      "[mp3 @ 0x7f9ef77094c0] Estimating duration from bitrate, this may be inaccurate\n",
      "[mp3 @ 0x7f9ef800b880] Estimating duration from bitrate, this may be inaccurate\n",
      "[mp3 @ 0x7f9ef8604080] Estimating duration from bitrate, this may be inaccurate\n",
      "    Last message repeated 1 times\n",
      "[mp3 @ 0x7f9ef800b880] Estimating duration from bitrate, this may be inaccurate\n",
      "[mp3 @ 0x7f9ef7708d80] Estimating duration from bitrate, this may be inaccurate\n"
     ]
    },
    {
     "name": "stderr",
     "output_type": "stream",
     "text": [
      "[mp3 @ 0x7f9ef800b880] Estimating duration from bitrate, this may be inaccurate\n",
      "[mp3 @ 0x7f9ef8604080] Estimating duration from bitrate, this may be inaccurate\n",
      "[mp3 @ 0x7f9ef800bac0] Estimating duration from bitrate, this may be inaccurate\n",
      "[mp3 @ 0x7f9ef8204c00] Estimating duration from bitrate, this may be inaccurate\n",
      "[mp3 @ 0x7f9ef800b940] Estimating duration from bitrate, this may be inaccurate\n",
      "[mp3 @ 0x7f9ef8204e80] Estimating duration from bitrate, this may be inaccurate\n",
      "[mp3 @ 0x7f9ef800b880] Estimating duration from bitrate, this may be inaccurate\n",
      "[mp3 @ 0x7f9ef8204c00] Estimating duration from bitrate, this may be inaccurate\n"
     ]
    },
    {
     "name": "stdout",
     "output_type": "stream",
     "text": [
      "Generate full audio: ./TreasureIsland/project_file/audio/120-1_txt.mp3\n",
      "./TreasureIsland/project_file/audio/120-1_txt.mp3\n"
     ]
    },
    {
     "name": "stderr",
     "output_type": "stream",
     "text": [
      "    Last message repeated 2 times\n",
      "[mp3 @ 0x7f9ef8604080] Estimating duration from bitrate, this may be inaccurate\n",
      "[mp3 @ 0x7f9ef8204dc0] Estimating duration from bitrate, this may be inaccurate\n",
      "[mp3 @ 0x7f9ef8604080] Estimating duration from bitrate, this may be inaccurate\n",
      "size=  100100kB time=07:07:05.66 bitrate=  32.0kbits/s speed=5.16e+03x    \n",
      "video:0kB audio:100100kB subtitle:0kB other streams:0kB global headers:0kB muxing overhead: 0.000231%\n"
     ]
    }
   ],
   "source": [
    "# Merge audio files => full length\n",
    "print(test_tta.merge_audio_files(file_name))"
   ]
  },
  {
   "cell_type": "code",
   "execution_count": 17,
   "id": "b382e4e1",
   "metadata": {},
   "outputs": [
    {
     "name": "stderr",
     "output_type": "stream",
     "text": [
      "ffmpeg version 5.1.2 Copyright (c) 2000-2022 the FFmpeg developers\n",
      "  built with Apple clang version 14.0.0 (clang-1400.0.29.102)\n",
      "  configuration: --prefix=/usr/local/Cellar/ffmpeg/5.1.2 --enable-shared --enable-pthreads --enable-version3 --cc=clang --host-cflags= --host-ldflags= --enable-ffplay --enable-gnutls --enable-gpl --enable-libaom --enable-libbluray --enable-libdav1d --enable-libmp3lame --enable-libopus --enable-librav1e --enable-librist --enable-librubberband --enable-libsnappy --enable-libsrt --enable-libtesseract --enable-libtheora --enable-libvidstab --enable-libvmaf --enable-libvorbis --enable-libvpx --enable-libwebp --enable-libx264 --enable-libx265 --enable-libxml2 --enable-libxvid --enable-lzma --enable-libfontconfig --enable-libfreetype --enable-frei0r --enable-libass --enable-libopencore-amrnb --enable-libopencore-amrwb --enable-libopenjpeg --enable-libspeex --enable-libsoxr --enable-libzmq --enable-libzimg --disable-libjack --disable-indev=jack --enable-videotoolbox\n",
      "  libavutil      57. 28.100 / 57. 28.100\n",
      "  libavcodec     59. 37.100 / 59. 37.100\n",
      "  libavformat    59. 27.100 / 59. 27.100\n",
      "  libavdevice    59.  7.100 / 59.  7.100\n",
      "  libavfilter     8. 44.100 /  8. 44.100\n",
      "  libswscale      6.  7.100 /  6.  7.100\n",
      "  libswresample   4.  7.100 /  4.  7.100\n",
      "  libpostproc    56.  6.100 / 56.  6.100\n",
      "Input #0, png_pipe, from './TreasureIsland/project_file/image/120-1_txt.png':\n",
      "  Duration: N/A, bitrate: N/A\n",
      "  Stream #0:0: Video: png, rgba(pc), 1280x720 [SAR 2835:2835 DAR 16:9], 25 fps, 25 tbr, 25 tbn\n",
      "Input #1, mp3, from './TreasureIsland/project_file/audio/120-1_txt.mp3':\n",
      "  Metadata:\n",
      "    encoder         : Lavf59.27.100\n",
      "  Duration: 07:07:05.66, start: 0.022042, bitrate: 32 kb/s\n",
      "  Stream #1:0: Audio: mp3, 24000 Hz, mono, fltp, 32 kb/s\n",
      "Stream mapping:\n",
      "  Stream #0:0 -> #0:0 (png (native) -> h264 (libx264))\n",
      "  Stream #1:0 -> #0:1 (mp3 (mp3float) -> aac (native))\n",
      "Press [q] to stop, [?] for help\n",
      "[libx264 @ 0x7f79dd205e80] using SAR=1/1\n",
      "[libx264 @ 0x7f79dd205e80] using cpu capabilities: MMX2 SSE2Fast SSSE3 SSE4.2 AVX FMA3 BMI2 AVX2\n",
      "[libx264 @ 0x7f79dd205e80] profile High, level 3.1, 4:2:0, 8-bit\n",
      "[libx264 @ 0x7f79dd205e80] 264 - core 164 r3095 baee400 - H.264/MPEG-4 AVC codec - Copyleft 2003-2022 - http://www.videolan.org/x264.html - options: cabac=1 ref=3 deblock=1:-3:-3 analyse=0x3:0x113 me=hex subme=7 psy=1 psy_rd=2.00:0.70 mixed_ref=1 me_range=16 chroma_me=1 trellis=1 8x8dct=1 cqm=0 deadzone=21,11 fast_pskip=1 chroma_qp_offset=-4 threads=12 lookahead_threads=2 sliced_threads=0 nr=0 decimate=1 interlaced=0 bluray_compat=0 constrained_intra=0 bframes=3 b_pyramid=2 b_adapt=1 b_bias=0 direct=1 weightb=1 open_gop=0 weightp=2 keyint=250 keyint_min=25 scenecut=40 intra_refresh=0 rc_lookahead=40 rc=crf mbtree=1 crf=23.0 qcomp=0.60 qpmin=0 qpmax=69 qpstep=4 ip_ratio=1.40 aq=1:1.20\n",
      "[aac @ 0x7f79dc70c880] Too many bits 8192.000000 > 6144 per frame requested, clamping to max\n",
      "Output #0, mp4, to './TreasureIsland/project_file/video/120-1_txt.mp4':\n",
      "  Metadata:\n",
      "    encoder         : Lavf59.27.100\n",
      "  Stream #0:0: Video: h264 (avc1 / 0x31637661), yuv420p(tv, progressive), 1280x720 [SAR 1:1 DAR 16:9], q=2-31, 25 fps, 12800 tbn\n",
      "    Metadata:\n",
      "      encoder         : Lavc59.37.100 libx264\n",
      "    Side data:\n",
      "      cpb: bitrate max/min/avg: 0/0/0 buffer size: 0 vbv_delay: N/A\n",
      "  Stream #0:1: Audio: aac (LC) (mp4a / 0x6134706D), 24000 Hz, mono, fltp, 144 kb/s\n",
      "    Metadata:\n",
      "      encoder         : Lavc59.37.100 aac\n",
      "frame=640695 fps=110 q=28.0 size=  928768kB time=07:07:05.47 bitrate= 296.9kbits/s speed=4.38x    \r"
     ]
    },
    {
     "name": "stdout",
     "output_type": "stream",
     "text": [
      "Generate full video: ./TreasureIsland/project_file/video/120-1_txt.mp4\n",
      "./TreasureIsland/project_file/video/120-1_txt.mp4\n"
     ]
    },
    {
     "name": "stderr",
     "output_type": "stream",
     "text": [
      "frame=640697 fps=110 q=-1.0 Lsize=  944463kB time=07:07:07.76 bitrate= 301.9kbits/s speed=4.38x    \n",
      "video:625312kB audio:303674kB subtitle:0kB other streams:0kB global headers:0kB muxing overhead: 1.665938%\n",
      "[libx264 @ 0x7f79dd205e80] frame I:2563  Avg QP:15.54  size:216218\n",
      "[libx264 @ 0x7f79dd205e80] frame P:161455 Avg QP:14.56  size:   282\n",
      "[libx264 @ 0x7f79dd205e80] frame B:476679 Avg QP:26.31  size:    85\n",
      "[libx264 @ 0x7f79dd205e80] consecutive B-frames:  0.8%  0.0%  0.0% 99.2%\n",
      "[libx264 @ 0x7f79dd205e80] mb I  I16..4:  1.0% 57.5% 41.5%\n",
      "[libx264 @ 0x7f79dd205e80] mb P  I16..4:  0.0%  0.0%  0.0%  P16..4:  0.7%  0.1%  0.1%  0.0%  0.0%    skip:99.1%\n",
      "[libx264 @ 0x7f79dd205e80] mb B  I16..4:  0.0%  0.0%  0.0%  B16..8:  1.5%  0.0%  0.0%  direct: 0.0%  skip:98.5%  L0:55.9% L1:44.0% BI: 0.1%\n",
      "[libx264 @ 0x7f79dd205e80] 8x8 transform intra:57.5% inter:82.5%\n",
      "[libx264 @ 0x7f79dd205e80] coded y,uvDC,uvAC intra: 98.3% 99.9% 99.9% inter: 0.1% 0.0% 0.0%\n",
      "[libx264 @ 0x7f79dd205e80] i16 v,h,dc,p: 21% 21% 19% 39%\n",
      "[libx264 @ 0x7f79dd205e80] i8 v,h,dc,ddl,ddr,vr,hd,vl,hu: 15% 20% 11%  6%  9%  9%  9%  9% 11%\n",
      "[libx264 @ 0x7f79dd205e80] i4 v,h,dc,ddl,ddr,vr,hd,vl,hu: 15% 13%  6%  8% 14% 12% 11% 10% 10%\n",
      "[libx264 @ 0x7f79dd205e80] i8c dc,h,v,p: 48% 22% 17% 14%\n",
      "[libx264 @ 0x7f79dd205e80] Weighted P-Frames: Y:0.0% UV:0.0%\n",
      "[libx264 @ 0x7f79dd205e80] ref P L0: 70.0%  0.4% 28.2%  1.3%\n",
      "[libx264 @ 0x7f79dd205e80] ref B L0: 52.8% 47.0%  0.2%\n",
      "[libx264 @ 0x7f79dd205e80] ref B L1: 95.5%  4.5%\n",
      "[libx264 @ 0x7f79dd205e80] kb/s:199.88\n",
      "[aac @ 0x7f79dc70c880] Qavg: 65521.039\n"
     ]
    }
   ],
   "source": [
    "# Audio + Image => Video\n",
    "print(test_tta.merge_video_file(file_name))"
   ]
  },
  {
   "cell_type": "code",
   "execution_count": 16,
   "id": "004bc195",
   "metadata": {},
   "outputs": [
    {
     "name": "stdout",
     "output_type": "stream",
     "text": [
      "0:00:00 Chapter 1\n",
      "0:14:04 Chaptor 2\n",
      "0:27:42 Chaptor 3\n",
      "0:40:46 Chaptor 4\n",
      "0:53:34 Chaptor 5\n",
      "1:05:14 Chaptor 6\n",
      "1:17:58 Chaptor 7\n",
      "1:29:32 Chaptor 8\n",
      "1:40:58 Chaptor 9\n",
      "1:51:56 Chaptor 10\n",
      "2:03:46 Chaptor 11\n",
      "2:17:13 Chaptor 12\n",
      "2:28:40 Chaptor 13\n",
      "2:39:33 Chaptor 14\n",
      "2:51:25 Chaptor 15\n",
      "3:05:57 Chaptor 16\n",
      "3:16:02 Chaptor 17\n",
      "3:25:10 Chaptor 18\n",
      "3:34:44 Chaptor 19\n",
      "3:47:15 Chaptor 20\n",
      "3:59:21 Chaptor 21\n",
      "4:12:33 Chaptor 22\n",
      "4:25:01 Chaptor 23\n",
      "4:34:54 Chaptor 24\n",
      "4:47:05 Chaptor 25\n",
      "4:57:45 Chaptor 26\n",
      "5:15:53 Chaptor 27\n",
      "5:29:13 Chaptor 28\n",
      "5:46:45 Chaptor 29\n",
      "6:00:33 Chaptor 30\n",
      "6:15:20 Chaptor 31\n",
      "6:29:47 Chaptor 32\n",
      "6:42:40 Chaptor 33\n",
      "6:55:23 Chaptor 34\n"
     ]
    }
   ],
   "source": [
    "print(test_tta.gen_youtube_chapter_marker(file_name))"
   ]
  },
  {
   "cell_type": "code",
   "execution_count": null,
   "id": "a692882a",
   "metadata": {},
   "outputs": [],
   "source": []
  }
 ],
 "metadata": {
  "kernelspec": {
   "display_name": "Python tts env",
   "language": "python",
   "name": "tts_env"
  },
  "language_info": {
   "codemirror_mode": {
    "name": "ipython",
    "version": 3
   },
   "file_extension": ".py",
   "mimetype": "text/x-python",
   "name": "python",
   "nbconvert_exporter": "python",
   "pygments_lexer": "ipython3",
   "version": "3.9.12"
  }
 },
 "nbformat": 4,
 "nbformat_minor": 5
}
